# This file uses centimeters as units for non-parametric coordinates.

mtllib Cold.mtl
g default
v -2.058522 5.307058 3.335788
v 2.144326 5.307058 3.335788
v -2.058522 6.200784 3.335788
v 2.144326 6.200784 3.335788
v -2.058522 6.200784 -3.335788
v 2.144326 6.200784 -3.335788
v -2.058522 5.307058 -3.335788
v 2.144326 5.307058 -3.335788
v 21.929302 11.419361 3.335788
v 26.132149 11.419361 3.335788
v 21.929302 12.313087 3.335788
v 26.132149 12.313087 3.335788
v 21.929302 12.313087 -3.335788
v 26.132149 12.313087 -3.335788
v 21.929302 11.419361 -3.335788
v 26.132149 11.419361 -3.335788
v 2.543750 12.536033 -0.826514
v 2.163843 12.536033 -1.572124
v 1.572124 12.536033 -2.163843
v 0.826514 12.536033 -2.543750
v -0.000000 12.536033 -2.674656
v -0.826514 12.536033 -2.543750
v -1.572123 12.536033 -2.163842
v -2.163842 12.536033 -1.572123
v -2.543749 12.536033 -0.826514
v -2.674656 12.536033 0.000000
v -2.543749 12.536033 0.826514
v -2.163842 12.536033 1.572123
v -1.572123 12.536033 2.163842
v -0.826514 12.536033 2.543749
v -0.000000 12.536033 2.674655
v 0.826514 12.536033 2.543749
v 1.572123 12.536033 2.163842
v 2.163842 12.536033 1.572123
v 2.543748 12.536033 0.826514
v 2.674655 12.536033 0.000000
v 2.543750 14.536033 -0.826514
v 2.163843 14.536033 -1.572124
v 1.572124 14.536033 -2.163843
v 0.826514 14.536033 -2.543750
v -0.000000 14.536033 -2.674656
v -0.826514 14.536033 -2.543750
v -1.572123 14.536033 -2.163842
v -2.163842 14.536033 -1.572123
v -2.543749 14.536033 -0.826514
v -2.674656 14.536033 0.000000
v -2.543749 14.536033 0.826514
v -2.163842 14.536033 1.572123
v -1.572123 14.536033 2.163842
v -0.826514 14.536033 2.543749
v -0.000000 14.536033 2.674655
v 0.826514 14.536033 2.543749
v 1.572123 14.536033 2.163842
v 2.163842 14.536033 1.572123
v 2.543748 14.536033 0.826514
v 2.674655 14.536033 0.000000
v -0.000000 14.536033 0.000000
v 3.221188 11.410398 -1.046626
v 2.740107 11.410398 -1.990802
v 1.990804 11.410398 -2.740107
v 1.046627 11.410398 -3.221188
v 0.000000 11.410398 -3.386956
v -1.046627 11.410398 -3.221187
v -1.990803 11.410398 -2.740104
v -2.740103 11.410398 -1.990805
v -3.221187 11.410398 -1.046629
v -3.386956 11.410398 0.000000
v -3.221187 11.410398 1.046628
v -2.740103 11.410398 1.990804
v -1.990802 11.410398 2.740103
v -1.046627 11.410398 3.221187
v -0.000000 11.410398 3.386956
v 1.046627 11.410398 3.221187
v 1.990802 11.410398 2.740103
v 2.740103 11.410398 1.990802
v 3.221186 11.410398 1.046627
v 3.386955 11.410398 0.000000
v 0.927042 14.225349 -0.301220
v 0.788597 14.225349 -0.572950
v -0.000000 14.225349 -0.000000
v 0.572950 14.225349 -0.788627
v 0.301220 14.225349 -0.927058
v -0.000000 14.225349 -0.974740
v -0.301221 14.225349 -0.927058
v -0.572951 14.225349 -0.788627
v -0.788598 14.225349 -0.572950
v -0.927043 14.225349 -0.301220
v -0.974769 14.225349 -0.000000
v -0.927043 14.225349 0.301220
v -0.788598 14.225349 0.572950
v -0.572951 14.225349 0.788626
v -0.301221 14.225349 0.927057
v -0.000000 14.225349 0.974739
v 0.301220 14.225349 0.927057
v 0.572950 14.225349 0.788626
v 0.788597 14.225349 0.572950
v 0.927042 14.225349 0.301220
v 0.974768 14.225349 -0.000000
v -14.399024 -0.033763 3.335788
v -10.196176 -0.033763 3.335788
v -14.399024 1.140604 3.335788
v -10.196176 1.140604 3.335788
v -14.399024 1.140604 -3.335788
v -10.196176 1.140604 -3.335788
v -14.399024 -0.033763 -3.335788
v -10.196176 -0.033763 -3.335788
vt 0.375000 0.000000
vt 0.625000 0.000000
vt 0.375000 0.250000
vt 0.625000 0.250000
vt 0.375000 0.500000
vt 0.625000 0.500000
vt 0.375000 0.750000
vt 0.625000 0.750000
vt 0.375000 1.000000
vt 0.625000 1.000000
vt 0.875000 0.000000
vt 0.875000 0.250000
vt 0.125000 0.000000
vt 0.125000 0.250000
vt 0.375000 0.000000
vt 0.625000 0.000000
vt 0.625000 0.250000
vt 0.375000 0.250000
vt 0.625000 0.500000
vt 0.375000 0.500000
vt 0.625000 0.750000
vt 0.375000 0.750000
vt 0.625000 1.000000
vt 0.375000 1.000000
vt 0.875000 0.000000
vt 0.875000 0.250000
vt 0.125000 0.000000
vt 0.125000 0.250000
vt 0.375000 0.312500
vt 0.387500 0.312500
vt 0.387500 0.688440
vt 0.375000 0.688440
vt 0.400000 0.312500
vt 0.400000 0.688440
vt 0.412500 0.312500
vt 0.412500 0.688440
vt 0.425000 0.312500
vt 0.425000 0.688440
vt 0.437500 0.312500
vt 0.437500 0.688440
vt 0.450000 0.312500
vt 0.450000 0.688440
vt 0.462500 0.312500
vt 0.462500 0.688440
vt 0.475000 0.312500
vt 0.475000 0.688440
vt 0.487500 0.312500
vt 0.487500 0.688440
vt 0.500000 0.312500
vt 0.500000 0.688440
vt 0.512500 0.312500
vt 0.512500 0.688440
vt 0.525000 0.312500
vt 0.525000 0.688440
vt 0.537500 0.312500
vt 0.537500 0.688440
vt 0.550000 0.312500
vt 0.550000 0.688440
vt 0.562500 0.312500
vt 0.562500 0.688440
vt 0.575000 0.312500
vt 0.575000 0.688440
vt 0.587500 0.312500
vt 0.587500 0.688440
vt 0.600000 0.312500
vt 0.600000 0.688440
vt 0.612500 0.312500
vt 0.612500 0.688440
vt 0.625000 0.312500
vt 0.625000 0.688440
vt 0.626409 0.064408
vt 0.648603 0.107966
vt 0.500000 0.150000
vt 0.591842 0.029841
vt 0.548284 0.007647
vt 0.500000 -0.000000
vt 0.451716 0.007647
vt 0.408159 0.029841
vt 0.373591 0.064409
vt 0.351397 0.107966
vt 0.343750 0.156250
vt 0.351397 0.204534
vt 0.373591 0.248091
vt 0.408159 0.282659
vt 0.451716 0.304853
vt 0.500000 0.312500
vt 0.548284 0.304853
vt 0.591841 0.282659
vt 0.626409 0.248091
vt 0.648603 0.204534
vt 0.656250 0.156250
vt 0.648603 0.892034
vt 0.626409 0.935591
vt 0.500000 0.837500
vt 0.591841 0.970159
vt 0.548284 0.992353
vt 0.500000 1.000000
vt 0.451716 0.992353
vt 0.408159 0.970159
vt 0.373591 0.935591
vt 0.351397 0.892034
vt 0.343750 0.843750
vt 0.351397 0.795466
vt 0.373591 0.751909
vt 0.408159 0.717341
vt 0.451716 0.695147
vt 0.500000 0.687500
vt 0.548284 0.695147
vt 0.591842 0.717341
vt 0.626409 0.751908
vt 0.648603 0.795466
vt 0.656250 0.843750
vt 0.626409 0.064408
vt 0.648603 0.107966
vt 0.648603 0.107966
vt 0.626409 0.064408
vt 0.591842 0.029841
vt 0.591842 0.029841
vt 0.548284 0.007647
vt 0.548284 0.007647
vt 0.500000 -0.000000
vt 0.500000 -0.000000
vt 0.451716 0.007647
vt 0.451716 0.007647
vt 0.408159 0.029841
vt 0.408159 0.029841
vt 0.373591 0.064409
vt 0.373591 0.064409
vt 0.351397 0.107966
vt 0.351397 0.107966
vt 0.343750 0.156250
vt 0.343750 0.156250
vt 0.351397 0.204534
vt 0.351397 0.204534
vt 0.373591 0.248091
vt 0.373591 0.248091
vt 0.408159 0.282659
vt 0.408159 0.282659
vt 0.451716 0.304853
vt 0.451716 0.304853
vt 0.500000 0.312500
vt 0.500000 0.312500
vt 0.548284 0.304853
vt 0.548284 0.304853
vt 0.591841 0.282659
vt 0.591841 0.282659
vt 0.626409 0.248091
vt 0.626409 0.248091
vt 0.648603 0.204534
vt 0.648603 0.204534
vt 0.656250 0.156250
vt 0.656250 0.156250
vt 0.375000 0.000000
vt 0.625000 0.000000
vt 0.625000 0.250000
vt 0.375000 0.250000
vt 0.625000 0.500000
vt 0.375000 0.500000
vt 0.625000 0.750000
vt 0.375000 0.750000
vt 0.625000 1.000000
vt 0.375000 1.000000
vt 0.875000 0.000000
vt 0.875000 0.250000
vt 0.125000 0.000000
vt 0.125000 0.250000
vn 0.000000 0.000000 1.000000
vn 0.000000 0.000000 1.000000
vn 0.000000 0.000000 1.000000
vn 0.000000 0.000000 1.000000
vn 0.000000 1.000000 0.000000
vn 0.000000 1.000000 0.000000
vn 0.000000 1.000000 0.000000
vn 0.000000 1.000000 0.000000
vn 0.000000 0.000000 -1.000000
vn 0.000000 0.000000 -1.000000
vn 0.000000 0.000000 -1.000000
vn 0.000000 0.000000 -1.000000
vn 0.000000 -1.000000 0.000000
vn 0.000000 -1.000000 0.000000
vn 0.000000 -1.000000 0.000000
vn 0.000000 -1.000000 0.000000
vn 1.000000 0.000000 0.000000
vn 1.000000 0.000000 0.000000
vn 1.000000 0.000000 0.000000
vn 1.000000 0.000000 0.000000
vn -1.000000 0.000000 0.000000
vn -1.000000 0.000000 0.000000
vn -1.000000 0.000000 0.000000
vn -1.000000 0.000000 0.000000
vn 0.000000 0.000000 1.000000
vn 0.000000 0.000000 1.000000
vn 0.000000 0.000000 1.000000
vn 0.000000 0.000000 1.000000
vn 0.000000 1.000000 0.000000
vn 0.000000 1.000000 0.000000
vn 0.000000 1.000000 0.000000
vn 0.000000 1.000000 0.000000
vn 0.000000 0.000000 -1.000000
vn 0.000000 0.000000 -1.000000
vn 0.000000 0.000000 -1.000000
vn 0.000000 0.000000 -1.000000
vn 0.000000 -1.000000 0.000000
vn 0.000000 -1.000000 0.000000
vn 0.000000 -1.000000 0.000000
vn 0.000000 -1.000000 0.000000
vn 1.000000 0.000000 0.000000
vn 1.000000 0.000000 0.000000
vn 1.000000 0.000000 0.000000
vn 1.000000 0.000000 0.000000
vn -1.000000 0.000000 0.000000
vn -1.000000 0.000000 0.000000
vn -1.000000 0.000000 0.000000
vn -1.000000 0.000000 0.000000
vn 0.921726 0.246435 -0.299486
vn 0.784066 0.246435 -0.569658
vn 0.809017 0.000000 -0.587785
vn 0.951057 0.000000 -0.309016
vn 0.569658 0.246435 -0.784066
vn 0.587785 0.000000 -0.809017
vn 0.299486 0.246435 -0.921725
vn 0.309017 0.000000 -0.951057
vn -0.000000 0.246435 -0.969159
vn 0.000000 0.000000 -1.000000
vn -0.299487 0.246435 -0.921725
vn -0.309017 0.000000 -0.951057
vn -0.569658 0.246435 -0.784066
vn -0.587786 0.000000 -0.809017
vn -0.784066 0.246435 -0.569658
vn -0.809017 0.000000 -0.587785
vn -0.921725 0.246435 -0.299487
vn -0.951057 0.000000 -0.309017
vn -0.969159 0.246435 -0.000000
vn -1.000000 0.000000 0.000000
vn -0.921725 0.246435 0.299487
vn -0.951057 0.000000 0.309017
vn -0.784066 0.246435 0.569658
vn -0.809017 0.000000 0.587785
vn -0.569658 0.246435 0.784066
vn -0.587785 0.000000 0.809017
vn -0.299487 0.246435 0.921725
vn -0.309017 0.000000 0.951057
vn -0.000000 0.246435 0.969159
vn 0.000000 0.000000 1.000000
vn 0.299487 0.246435 0.921725
vn 0.309017 0.000000 0.951057
vn 0.569658 0.246434 0.784066
vn 0.587785 0.000000 0.809017
vn 0.784067 0.246435 0.569658
vn 0.809017 0.000000 0.587785
vn 0.921725 0.246435 0.299487
vn 0.951057 0.000000 0.309017
vn 0.969159 0.246435 0.000001
vn 1.000000 0.000000 0.000001
vn 0.000000 -1.000000 -0.000000
vn 0.000000 -1.000000 0.000003
vn 0.000000 -1.000000 -0.000000
vn 0.000000 -1.000000 -0.000003
vn 0.000000 -1.000000 0.000000
vn 0.000000 -1.000000 0.000000
vn 0.000000 -1.000000 0.000000
vn 0.000000 -1.000000 0.000000
vn 0.000000 -1.000000 0.000000
vn 0.000000 -1.000000 0.000000
vn 0.000000 -1.000000 0.000000
vn 0.000000 -1.000000 0.000000
vn 0.000000 -1.000000 0.000000
vn 0.000000 -1.000000 0.000000
vn 0.000000 -1.000000 -0.000000
vn 0.000000 -1.000000 -0.000000
vn 0.000000 -1.000000 0.000000
vn 0.000000 -1.000000 0.000003
vn 0.000000 -1.000000 0.000000
vn 0.000000 -1.000000 -0.000003
vn 0.000000 -1.000000 0.000000
vn 0.000000 1.000000 0.000000
vn 0.000000 1.000000 -0.000001
vn 0.000000 1.000000 0.000000
vn 0.000000 1.000000 -0.000001
vn 0.000000 1.000000 0.000000
vn 0.000000 1.000000 0.000000
vn 0.000000 1.000000 0.000000
vn 0.000000 1.000000 0.000000
vn 0.000000 1.000000 0.000000
vn 0.000000 1.000000 0.000000
vn 0.000000 1.000000 0.000000
vn 0.000000 1.000000 0.000000
vn 0.000000 1.000000 0.000000
vn 0.000000 1.000000 0.000000
vn 0.000000 1.000000 0.000000
vn 0.000000 1.000000 0.000000
vn 0.000000 1.000000 0.000000
vn 0.000000 1.000000 0.000001
vn 0.000000 1.000000 0.000001
vn 0.000000 1.000000 0.000000
vn 0.000000 1.000000 0.000000
vn 0.803665 0.534730 -0.261125
vn 0.683638 0.534730 -0.496692
vn 0.496692 0.534730 -0.683638
vn 0.261126 0.534730 -0.803665
vn -0.000000 0.534730 -0.845023
vn -0.261127 0.534730 -0.803665
vn -0.496692 0.534730 -0.683638
vn -0.683638 0.534730 -0.496692
vn -0.803665 0.534730 -0.261127
vn -0.845023 0.534730 -0.000000
vn -0.803665 0.534730 0.261127
vn -0.683638 0.534730 0.496693
vn -0.496692 0.534730 0.683638
vn -0.261127 0.534730 0.803665
vn -0.000000 0.534730 0.845023
vn 0.261127 0.534730 0.803665
vn 0.496693 0.534729 0.683638
vn 0.683638 0.534729 0.496692
vn 0.803665 0.534730 0.261127
vn 0.845023 0.534730 0.000001
vn -0.614323 -0.650694 0.446323
vn -0.722174 -0.650695 0.234651
vn -0.722174 -0.650695 0.234651
vn -0.614324 -0.650694 0.446321
vn -0.446330 -0.650694 0.614318
vn -0.446330 -0.650694 0.614318
vn -0.234636 -0.650694 0.722179
vn -0.234632 -0.650694 0.722180
vn -0.000000 -0.650695 0.759339
vn 0.000000 -0.650695 0.759339
vn 0.234637 -0.650694 0.722179
vn 0.234633 -0.650694 0.722180
vn 0.446331 -0.650694 0.614318
vn 0.446330 -0.650694 0.614318
vn 0.614322 -0.650694 0.446324
vn 0.614324 -0.650694 0.446322
vn 0.722174 -0.650695 0.234651
vn 0.722174 -0.650695 0.234652
vn 0.759339 -0.650696 0.000000
vn 0.759339 -0.650696 0.000000
vn 0.722174 -0.650695 -0.234651
vn 0.722174 -0.650695 -0.234652
vn 0.614322 -0.650694 -0.446324
vn 0.614324 -0.650694 -0.446322
vn 0.446331 -0.650694 -0.614318
vn 0.446330 -0.650694 -0.614318
vn 0.234637 -0.650695 -0.722179
vn 0.234633 -0.650695 -0.722180
vn 0.000000 -0.650695 -0.759339
vn 0.000000 -0.650695 -0.759339
vn -0.234637 -0.650695 -0.722179
vn -0.234633 -0.650695 -0.722180
vn -0.446331 -0.650694 -0.614318
vn -0.446331 -0.650694 -0.614318
vn -0.614323 -0.650694 -0.446324
vn -0.614324 -0.650694 -0.446322
vn -0.722174 -0.650695 -0.234652
vn -0.722173 -0.650695 -0.234653
vn -0.759339 -0.650696 0.000000
vn -0.759338 -0.650696 0.000000
vn 0.000000 0.000000 1.000000
vn 0.000000 0.000000 1.000000
vn 0.000000 0.000000 1.000000
vn 0.000000 0.000000 1.000000
vn 0.000000 1.000000 0.000000
vn 0.000000 1.000000 0.000000
vn 0.000000 1.000000 0.000000
vn 0.000000 1.000000 0.000000
vn 0.000000 0.000000 -1.000000
vn 0.000000 0.000000 -1.000000
vn 0.000000 0.000000 -1.000000
vn 0.000000 0.000000 -1.000000
vn 0.000000 -1.000000 0.000000
vn 0.000000 -1.000000 0.000000
vn 0.000000 -1.000000 0.000000
vn 0.000000 -1.000000 0.000000
vn 1.000000 0.000000 0.000000
vn 1.000000 0.000000 0.000000
vn 1.000000 0.000000 0.000000
vn 1.000000 0.000000 0.000000
vn -1.000000 0.000000 0.000000
vn -1.000000 0.000000 0.000000
vn -1.000000 0.000000 0.000000
vn -1.000000 0.000000 0.000000
s off
g Cold
usemtl lambert2SG
f 1/1/1 2/2/2 4/4/3 3/3/4
f 3/3/5 4/4/6 6/6/7 5/5/8
f 5/5/9 6/6/10 8/8/11 7/7/12
f 7/7/13 8/8/14 2/10/15 1/9/16
f 2/2/17 8/11/18 6/12/19 4/4/20
f 7/13/21 1/1/22 3/3/23 5/14/24
f 9/15/25 10/16/26 12/17/27 11/18/28
f 11/18/29 12/17/30 14/19/31 13/20/32
f 13/20/33 14/19/34 16/21/35 15/22/36
f 15/22/37 16/21/38 10/23/39 9/24/40
f 10/16/41 16/25/42 14/26/43 12/17/44
f 15/27/45 9/15/46 11/18/47 13/28/48
s 1
f 17/29/49 18/30/50 38/31/51 37/32/52
f 18/30/50 19/33/53 39/34/54 38/31/51
f 19/33/53 20/35/55 40/36/56 39/34/54
f 20/35/55 21/37/57 41/38/58 40/36/56
f 21/37/57 22/39/59 42/40/60 41/38/58
f 22/39/59 23/41/61 43/42/62 42/40/60
f 23/41/61 24/43/63 44/44/64 43/42/62
f 24/43/63 25/45/65 45/46/66 44/44/64
f 25/45/65 26/47/67 46/48/68 45/46/66
f 26/47/67 27/49/69 47/50/70 46/48/68
f 27/49/69 28/51/71 48/52/72 47/50/70
f 28/51/71 29/53/73 49/54/74 48/52/72
f 29/53/73 30/55/75 50/56/76 49/54/74
f 30/55/75 31/57/77 51/58/78 50/56/76
f 31/57/77 32/59/79 52/60/80 51/58/78
f 32/59/79 33/61/81 53/62/82 52/60/80
f 33/61/81 34/63/83 54/64/84 53/62/82
f 34/63/83 35/65/85 55/66/86 54/64/84
f 35/65/85 36/67/87 56/68/88 55/66/86
f 36/67/87 17/69/49 37/70/52 56/68/88
s 2
f 79/71/89 78/72/90 80/73/91
f 81/74/92 79/71/89 80/73/91
f 82/75/93 81/74/92 80/73/91
f 83/76/94 82/75/93 80/73/91
f 84/77/95 83/76/94 80/73/91
f 85/78/96 84/77/95 80/73/91
f 86/79/97 85/78/96 80/73/91
f 87/80/98 86/79/97 80/73/91
f 88/81/99 87/80/98 80/73/91
f 89/82/100 88/81/99 80/73/91
f 90/83/101 89/82/100 80/73/91
f 91/84/102 90/83/101 80/73/91
f 92/85/103 91/84/102 80/73/91
f 93/86/104 92/85/103 80/73/91
f 94/87/105 93/86/104 80/73/91
f 95/88/106 94/87/105 80/73/91
f 96/89/107 95/88/106 80/73/91
f 97/90/108 96/89/107 80/73/91
f 98/91/109 97/90/108 80/73/91
f 78/72/90 98/91/109 80/73/91
s 3
f 37/92/110 38/93/111 57/94/112
f 38/93/111 39/95/113 57/94/112
f 39/95/113 40/96/114 57/94/112
f 40/96/114 41/97/115 57/94/112
f 41/97/115 42/98/116 57/94/112
f 42/98/116 43/99/117 57/94/112
f 43/99/117 44/100/118 57/94/112
f 44/100/118 45/101/119 57/94/112
f 45/101/119 46/102/120 57/94/112
f 46/102/120 47/103/121 57/94/112
f 47/103/121 48/104/122 57/94/112
f 48/104/122 49/105/123 57/94/112
f 49/105/123 50/106/124 57/94/112
f 50/106/124 51/107/125 57/94/112
f 51/107/125 52/108/126 57/94/112
f 52/108/126 53/109/127 57/94/112
f 53/109/127 54/110/128 57/94/112
f 54/110/128 55/111/129 57/94/112
f 55/111/129 56/112/130 57/94/112
f 56/112/130 37/92/110 57/94/112
s 1
f 18/113/50 17/114/49 58/115/131 59/116/132
f 19/117/53 18/113/50 59/116/132 60/118/133
f 20/119/55 19/117/53 60/118/133 61/120/134
f 21/121/57 20/119/55 61/120/134 62/122/135
f 22/123/59 21/121/57 62/122/135 63/124/136
f 23/125/61 22/123/59 63/124/136 64/126/137
f 24/127/63 23/125/61 64/126/137 65/128/138
f 25/129/65 24/127/63 65/128/138 66/130/139
f 26/131/67 25/129/65 66/130/139 67/132/140
f 27/133/69 26/131/67 67/132/140 68/134/141
f 28/135/71 27/133/69 68/134/141 69/136/142
f 29/137/73 28/135/71 69/136/142 70/138/143
f 30/139/75 29/137/73 70/138/143 71/140/144
f 31/141/77 30/139/75 71/140/144 72/142/145
f 32/143/79 31/141/77 72/142/145 73/144/146
f 33/145/81 32/143/79 73/144/146 74/146/147
f 34/147/83 33/145/81 74/146/147 75/148/148
f 35/149/85 34/147/83 75/148/148 76/150/149
f 36/151/87 35/149/85 76/150/149 77/152/150
f 17/114/49 36/151/87 77/152/150 58/115/131
s 4
f 59/116/151 58/115/152 78/72/153 79/71/154
f 60/118/155 59/116/151 79/71/154 81/74/156
f 61/120/157 60/118/155 81/74/156 82/75/158
f 62/122/159 61/120/157 82/75/158 83/76/160
f 63/124/161 62/122/159 83/76/160 84/77/162
f 64/126/163 63/124/161 84/77/162 85/78/164
f 65/128/165 64/126/163 85/78/164 86/79/166
f 66/130/167 65/128/165 86/79/166 87/80/168
f 67/132/169 66/130/167 87/80/168 88/81/170
f 68/134/171 67/132/169 88/81/170 89/82/172
f 69/136/173 68/134/171 89/82/172 90/83/174
f 70/138/175 69/136/173 90/83/174 91/84/176
f 71/140/177 70/138/175 91/84/176 92/85/178
f 72/142/179 71/140/177 92/85/178 93/86/180
f 73/144/181 72/142/179 93/86/180 94/87/182
f 74/146/183 73/144/181 94/87/182 95/88/184
f 75/148/185 74/146/183 95/88/184 96/89/186
f 76/150/187 75/148/185 96/89/186 97/90/188
f 77/152/189 76/150/187 97/90/188 98/91/190
f 58/115/152 77/152/189 98/91/190 78/72/153
s off
f 99/153/191 100/154/192 102/155/193 101/156/194
f 101/156/195 102/155/196 104/157/197 103/158/198
f 103/158/199 104/157/200 106/159/201 105/160/202
f 105/160/203 106/159/204 100/161/205 99/162/206
f 100/154/207 106/163/208 104/164/209 102/155/210
f 105/165/211 99/153/212 101/156/213 103/166/214
