# This file uses centimeters as units for non-parametric coordinates.

mtllib PressurePlate.mtl
g default
v 9.017355 2.296237 1.777424
v 9.017355 2.296237 -1.777424
v 9.017355 1.703763 1.777424
v 9.017355 1.703763 -1.777424
v 11.387255 1.703763 1.777424
v 11.387255 1.703763 -1.777424
v 11.387254 2.296237 -1.777424
v 11.387254 2.296237 1.777424
vt 0.425400 0.500000
vt 0.425400 0.250000
vt 0.459000 0.250000
vt 0.459000 0.500000
vt 0.425400 0.500000
vt 0.425400 0.250000
vt 0.459000 0.250000
vt 0.459000 0.500000
vn 1.000000 0.000002 -0.000000
vn 1.000000 0.000002 -0.000000
vn 1.000000 0.000002 -0.000000
vn 1.000000 0.000002 -0.000000
vn -0.000000 -1.000000 0.000000
vn -0.000000 -1.000000 0.000000
vn -0.000000 -1.000000 0.000000
vn -0.000000 -1.000000 0.000000
vn -0.000000 0.000000 -1.000000
vn -0.000000 0.000000 -1.000000
vn -0.000000 0.000000 -1.000000
vn -0.000000 0.000000 -1.000000
vn -0.000000 1.000000 0.000000
vn -0.000000 1.000000 0.000000
vn -0.000000 1.000000 0.000000
vn -0.000000 1.000000 0.000000
vn 0.000000 0.000000 1.000000
vn 0.000000 0.000000 1.000000
vn 0.000000 0.000000 1.000000
vn 0.000000 0.000000 1.000000
vn -1.000000 0.000000 0.000000
vn -1.000000 0.000000 0.000000
vn -1.000000 0.000000 0.000000
vn -1.000000 0.000000 0.000000
s off
g PressurePlate
usemtl lambert4SG
f 5/1/1 6/2/2 7/3/3 8/4/4
f 3/5/5 4/6/6 6/2/7 5/1/8
f 4/6/9 2/7/10 7/3/11 6/2/12
f 2/7/13 1/8/14 8/4/15 7/3/16
f 1/8/17 3/5/18 5/1/19 8/4/20
f 1/8/21 2/7/22 4/6/23 3/5/24
